<svg width="173" height="77" viewBox="0 0 173 77" fill="none" xmlns="http://www.w3.org/2000/svg">
<g id="Group 97">
<g id="Group 70">
<path id="Vector" d="M42.2907 40.713C39.4756 36.7052 62.6533 2.73447 69.9725 7.02852C80.7637 13.3265 84.7049 36.896 80.7637 45.2933C76.8226 53.6905 46.3257 46.4384 42.2907 40.713Z" fill="#63C453"/>
<path id="Vector_2" d="M34.4088 41.9538C33.2828 36.8964 5.60098 14.949 1.84752 19.2431C-3.87652 26.0181 4.85029 63.1378 12.3572 63.8058C18.2689 64.3783 35.2534 45.6753 34.4088 41.9538Z" fill="#63C453"/>
<path id="Vector_3" d="M37.5052 36.9919C41.1649 35.8469 55.0527 7.98324 52.2376 3.59377C47.4519 -3.56298 10.1988 2.25784 10.668 9.70086C10.9495 13.9949 33.1888 38.3279 37.5052 36.9919Z" fill="#63C453"/>
<path id="Vector_4" d="M38.9127 44.8164C42.0093 43.7667 67.7206 53.6908 70.348 60.6567C72.8816 67.5272 34.1271 82.7949 23.9927 73.0617C18.081 67.3363 34.6901 46.2478 38.9127 44.8164Z" fill="#63C453"/>
</g>
<g id="Group">
<path id="Vector_5" d="M94.6155 41.0506H97.3096V22.2465H94.6155V17.8879H104.657V22.122H101.963V40.9261H104.657V45.2846H94.6155V41.0506Z" fill="white"/>
<path id="Vector_6" d="M109.8 38.0619C109.8 38.0619 112.616 41.2997 116.29 41.2997C118.372 41.2997 120.209 40.179 120.209 38.0619C120.209 33.3298 107.473 33.8279 107.473 25.2353C107.473 20.7522 111.269 17.5144 116.413 17.5144C119.597 17.5144 124.373 19.0088 124.373 22.8692V25.3598H119.842V24.1145C119.842 22.8692 118.005 21.9975 116.29 21.9975C113.964 21.9975 112.372 23.2428 112.372 24.9862C112.372 29.7184 125.107 28.7221 125.107 37.6883C125.107 42.0469 121.801 45.7828 116.168 45.7828C110.167 45.7828 106.861 41.5488 106.861 41.5488L109.8 38.0619Z" fill="white"/>
<path id="Vector_7" d="M128.659 23.1182C128.537 22.4956 128.047 22.2465 127.434 22.2465H126.7V17.8879H129.884C131.721 17.8879 132.823 18.3861 133.19 20.1295L136.864 36.443C137.231 37.9373 137.354 39.3072 137.354 39.3072H137.476C137.476 39.3072 137.599 37.9373 138.088 36.443L142.987 17.8879H147.15L151.804 36.443C152.171 38.0619 152.294 39.3072 152.294 39.3072H152.416C152.416 39.3072 152.539 37.9373 152.906 36.443L156.58 20.1295C156.947 18.3861 157.927 17.8879 159.886 17.8879H163.193V22.122H162.458C161.723 22.122 161.356 22.371 161.233 22.9937L155.6 45.2846H149.845L145.803 29.8429C145.314 28.0994 145.069 26.4805 145.069 26.4805H144.946C144.946 26.4805 144.701 28.0994 144.211 29.8429L140.048 45.2846H134.292L128.659 23.1182Z" fill="white"/>
</g>
<g id="Group_2">
<path id="Vector_8" d="M95.3508 52.6582C95.3508 52.4091 95.2283 52.2846 94.9834 52.2846H94.3711V51.0393H95.8406C96.4529 51.0393 96.8203 51.2884 96.8203 52.0355V55.7715H102.086V52.0355C102.086 51.4129 102.331 51.0393 103.066 51.0393H104.535V52.2846H103.8C103.556 52.2846 103.433 52.4091 103.433 52.6582V61.6244H102.086V57.0168H96.8203V61.6244H95.3508V52.6582Z" fill="white"/>
<path id="Vector_9" d="M109.678 53.7786C111.883 53.7786 113.72 55.3975 113.72 57.7635C113.72 60.0051 111.883 61.7485 109.678 61.7485C107.474 61.7485 105.637 60.1296 105.637 57.7635C105.76 55.522 107.474 53.7786 109.678 53.7786ZM109.678 60.5032C111.148 60.5032 112.25 59.3824 112.25 57.7635C112.25 56.1446 111.148 55.0239 109.678 55.0239C108.331 55.0239 107.107 56.1446 107.107 57.7635C107.107 59.3824 108.331 60.5032 109.678 60.5032Z" fill="white"/>
<path id="Vector_10" d="M119.108 53.7786C121.312 53.7786 123.149 55.3975 123.149 57.7635C123.149 60.0051 121.312 61.7485 119.108 61.7485C116.903 61.7485 115.189 60.0051 115.189 57.7635C115.189 55.522 116.903 53.7786 119.108 53.7786ZM119.108 60.5032C120.577 60.5032 121.679 59.3824 121.679 57.7635C121.679 56.1446 120.577 55.0239 119.108 55.0239C117.761 55.0239 116.536 56.1446 116.536 57.7635C116.658 59.3824 117.761 60.5032 119.108 60.5032Z" fill="white"/>
<path id="Vector_11" d="M127.925 53.7786C129.762 53.7786 130.252 54.8993 130.252 54.8993C130.252 54.8993 130.252 54.7748 130.252 54.6503C130.252 54.1522 130.497 53.9031 131.109 53.9031H132.456V55.1484H131.844C131.599 55.1484 131.476 55.2729 131.476 55.3975V61.1259C131.476 63.6165 129.639 64.6127 127.68 64.6127C126.823 64.6127 125.843 64.3636 125.108 63.9901L125.598 62.8693C125.598 62.8693 126.455 63.3674 127.68 63.3674C129.027 63.3674 130.007 62.7448 130.007 61.2504V60.7523C130.007 60.5032 130.007 60.2541 130.007 60.2541C129.517 61.0013 128.905 61.3749 127.803 61.3749C125.721 61.3749 124.496 59.6315 124.496 57.5145C124.619 55.3975 125.843 53.7786 127.925 53.7786ZM130.252 57.639C130.252 55.6465 129.272 55.1484 128.17 55.1484C126.823 55.1484 126.088 56.1446 126.088 57.639C126.088 59.2579 126.945 60.2541 128.292 60.2541C129.272 60.2541 130.252 59.6315 130.252 57.639Z" fill="white"/>
<path id="Vector_12" d="M137.354 53.7786C139.436 53.7786 140.538 55.3975 140.538 57.2654C140.538 57.5145 140.538 57.8881 140.538 57.8881H135.15C135.273 59.507 136.375 60.3787 137.722 60.3787C138.946 60.3787 139.926 59.507 139.926 59.507L140.538 60.5032C140.538 60.5032 139.436 61.624 137.722 61.624C135.395 61.624 133.803 59.8806 133.803 57.639C133.681 55.3975 135.273 53.7786 137.354 53.7786ZM139.069 56.8918C139.069 55.6465 138.212 55.0239 137.354 55.0239C136.252 55.0239 135.395 55.6465 135.15 56.8918H139.069Z" fill="white"/>
<path id="Vector_13" d="M142.62 52.5332C142.62 52.2841 142.497 52.1596 142.252 52.1596H141.64V50.9143H143.11C143.722 50.9143 144.089 51.1634 144.089 51.9106V59.8805C144.089 60.1296 144.212 60.2541 144.457 60.2541H145.069V61.4994H143.599C142.987 61.4994 142.62 61.2503 142.62 60.5032V52.5332Z" fill="white"/>
<path id="Vector_14" d="M150.825 56.8918H151.192V56.7673C151.192 55.3975 150.703 54.8993 149.6 54.8993C149.233 54.8993 148.376 55.0239 148.376 55.522V55.8956H147.029V55.1484C147.029 53.9031 148.866 53.7786 149.6 53.7786C152.05 53.7786 152.662 55.0239 152.662 56.7673V60.0051C152.662 60.2541 152.784 60.3787 153.029 60.3787H153.642V61.624H152.295C151.682 61.624 151.315 61.2504 151.315 60.7523C151.315 60.5032 151.315 60.2541 151.315 60.2541C151.315 60.2541 150.703 61.7485 148.988 61.7485C147.764 61.7485 146.417 61.0013 146.417 59.507C146.294 57.0164 149.478 56.8918 150.825 56.8918ZM149.111 60.6277C150.335 60.6277 151.07 59.3824 151.07 58.2617V58.0126H150.703C149.6 58.0126 147.641 58.0126 147.641 59.507C147.764 60.0051 148.131 60.6277 149.111 60.6277Z" fill="white"/>
<path id="Vector_15" d="M155.233 55.522C155.233 55.2729 155.111 55.1484 154.866 55.1484H154.376V53.9031H155.723C156.336 53.9031 156.703 54.1522 156.703 54.7748V55.1484C156.703 55.3975 156.703 55.522 156.703 55.522C156.948 54.8993 157.928 53.7786 159.52 53.7786C161.234 53.7786 162.091 54.7748 162.091 56.6428V59.8806C162.091 60.1296 162.214 60.2541 162.459 60.2541H162.948V61.4994H161.479C160.867 61.4994 160.499 61.2504 160.499 60.5032V56.8918C160.499 55.7711 160.254 55.0239 159.152 55.0239C158.05 55.0239 157.07 55.7711 156.825 56.8918C156.703 57.1409 156.703 57.5145 156.703 57.8881V61.3749H155.233V55.522Z" fill="white"/>
<path id="Vector_16" d="M167.479 53.7785C169.194 53.7785 169.806 54.8993 169.806 54.8993C169.806 54.8993 169.806 54.6502 169.806 54.4012V52.5332C169.806 52.2841 169.683 52.1596 169.439 52.1596H168.826V50.9143H170.296C170.908 50.9143 171.275 51.1634 171.275 51.9106V59.8805C171.275 60.1296 171.398 60.2541 171.643 60.2541H172.255V61.4994H170.908C170.296 61.4994 170.051 61.2503 170.051 60.7522C170.051 60.5032 170.051 60.3786 170.051 60.3786C170.051 60.3786 169.439 61.7485 167.602 61.7485C165.642 61.7485 164.295 60.1296 164.295 57.7635C164.05 55.3974 165.52 53.7785 167.479 53.7785ZM169.806 57.7635C169.806 56.3936 169.071 55.0238 167.724 55.0238C166.622 55.0238 165.642 56.0201 165.642 57.7635C165.642 59.3824 166.5 60.5032 167.724 60.5032C168.704 60.5032 169.806 59.6314 169.806 57.7635Z" fill="white"/>
</g>
</g>
</svg>
